<svg width="90" height="76" viewBox="0 0 90 76" fill="none" xmlns="http://www.w3.org/2000/svg">
<path fill-rule="evenodd" clip-rule="evenodd" d="M71.4134 0.857616C70.5382 1.2952 68.7757 3.06987 67.6817 4.60142C64.4484 9.15961 62.3577 14.4714 60.6925 22.3845C59.9145 26.0553 59.1001 31.6224 59.1001 33.2634C59.1001 33.7982 59.0029 34.0291 58.3587 35.1231C56.9365 37.4934 56.426 37.7243 56.426 35.9983C56.426 34.0656 57.4835 29.4952 59.246 23.8066C59.9632 21.4971 59.9753 21.3999 59.7808 21.096C59.5013 20.6706 59.1852 20.707 57.7874 21.2905C57.2968 21.4941 56.5454 21.7965 55.9089 22.0526C55.7096 22.1327 55.5216 22.2084 55.3563 22.2751C54.4568 22.6276 54.0679 22.8342 53.9706 23.0408C53.8612 23.2718 53.764 23.3083 53.1441 23.2961C52.4999 23.2839 52.3783 23.3326 51.5882 23.8674C49.7163 25.1437 46.6046 28.8753 44.5625 32.2909C44.7418 31.9947 44.4683 32.4611 44.3194 32.6799L43.7603 33.8711C43.1282 35.2082 42.7514 36.5574 42.6299 37.9188C42.5569 38.721 42.4961 38.8912 42.1193 39.3531C41.8762 39.6448 41.6696 39.8636 41.6574 39.8515C41.6331 39.8272 41.6939 39.0978 41.7911 38.2348C42.1072 35.0988 41.9735 33.5551 41.2442 32.1208C40.5392 30.7472 39.506 29.8599 38.096 29.4223C36.9291 29.0577 36.0782 29.0941 35.1666 29.556C33.7687 30.261 31.7023 32.4854 31.0946 33.9805C30.9852 34.2358 30.6205 34.88 30.2802 35.4148C29.9398 35.9375 29.4172 36.8856 29.1133 37.5177L28.5541 38.6603L26.816 36.9585C26.4844 37.3115 26.1891 37.6262 25.923 37.9098L25.9229 37.9099L25.9226 37.9102C24.1502 39.799 23.6728 40.3078 22.3915 41.5654C22.3915 41.7112 19.7416 44.3003 18.8665 44.9931C18.4289 45.3456 17.6631 45.8926 17.1404 46.2208C16.6299 46.549 16.1802 46.8893 16.1437 46.9987C15.9614 47.4849 16.7028 48.433 17.4321 48.6397C18.1007 48.8098 19.1703 48.4817 20.2521 47.7767L21.1273 47.2054L19.8267 51.5083C19.1096 53.8786 18.5626 55.7869 18.6112 55.7748C18.644 55.7529 19.1882 55.4852 19.8545 55.1574L19.8566 55.1563L19.8566 55.1563L20.082 55.0455C21.419 54.4012 23.376 53.5747 24.3484 53.2586C24.786 53.1128 24.7982 53.1006 25.2479 51.5691C25.5032 50.7182 26.1353 48.2993 26.6701 46.1965C27.2049 44.0936 27.6547 42.3554 27.679 42.3311C27.7033 42.3068 27.6911 42.7201 27.6547 43.2428C27.4237 46.6341 29.1862 49.211 32.3101 50.0254C35.6285 50.8884 38.6673 48.6275 40.7823 43.7168C41.2442 42.635 41.3657 42.4648 41.9856 41.9908C42.3624 41.6991 42.7879 41.3101 42.9216 41.1399L43.1647 40.8239L43.7724 41.4316C44.4896 42.1488 45.9847 42.8416 46.7748 42.8416C48.1362 42.8173 50.0324 40.8725 51.8192 37.6635C52.0987 37.1409 52.354 36.7397 52.3783 36.7641C52.4026 36.7762 52.354 37.3961 52.2811 38.1254C52.0137 40.7266 52.3297 42.0637 53.3143 42.5378C53.5938 42.6836 54.0193 42.793 54.2502 42.793C55.6481 42.793 57.447 40.9333 58.7233 38.1497L59.1731 37.1652L59.3311 38.0647C59.562 39.3653 60.2184 41.0913 60.8626 42.1245C61.1665 42.6229 61.4704 43.0604 61.519 43.0848C61.5676 43.1212 61.9323 42.2947 62.3334 41.2372C63.2815 38.6603 64.6672 35.901 65.3479 35.196L65.8706 34.649L65.9435 33.4822C66.0165 32.3517 66.0286 32.3153 66.5634 31.6224C70.8177 26.1039 75.0842 14.7632 76.008 6.58272C76.3119 3.85995 75.9837 2.26762 74.9384 1.34383C73.893 0.420033 72.6289 0.249857 71.4134 0.857616ZM73.0543 7.98056C73.2853 8.62479 73.1759 10.7641 72.8477 12.3078C72.4101 14.4107 70.526 19.7954 69.2011 22.737C68.484 24.3293 66.7336 27.4653 66.6607 27.2587C66.5391 26.8697 68.3381 18.8959 69.6752 13.9731C71.1824 8.45462 71.8996 6.85013 72.6532 7.34849C72.7869 7.43358 72.9692 7.7253 73.0543 7.98056ZM52.7065 30.3947C52.3054 32.7772 52.2689 32.923 51.7706 33.7374C50.9683 35.0745 49.5097 36.9464 48.9749 37.3353C48.7074 37.5298 48.4643 37.6635 48.44 37.6392C48.3428 37.5541 48.8898 35.7309 49.3395 34.5883C49.9716 32.9838 51.1871 30.6378 52.1717 29.1306C52.6457 28.4013 53.059 27.83 53.0833 27.8543C53.1076 27.8786 52.9375 29.0212 52.7065 30.3947ZM38.254 33.7982C38.801 34.8435 38.7402 37.1044 38.096 39.7785C37.6948 41.4073 37.5854 41.4924 36.8075 40.7023C36.1633 40.0703 36.0053 39.5597 36.0053 38.1741C36.0053 36.6303 36.4429 34.88 37.0992 33.8225C37.4274 33.2877 37.9866 33.2755 38.254 33.7982ZM34.8384 43.1455C35.1787 43.3522 35.7622 43.5831 36.139 43.6682L36.8318 43.8141L36.613 44.434C35.7379 46.9987 34.2549 48.0927 33.4527 46.7799C33.0151 46.0506 33.0151 44.2395 33.4648 42.6229L33.5985 42.161L33.9146 42.4648C34.0969 42.635 34.5102 42.9389 34.8384 43.1455ZM24.3728 16.7688C22.0268 17.571 18.6477 21.4363 16.3868 25.8851C15.4995 27.6112 15.4387 27.6841 13.7491 28.693C10.4794 30.6378 7.05161 30.7351 5.07031 28.9239C4.31669 28.2311 3.85479 27.3802 3.636 26.2741L3.47798 25.5083L2.14091 27.0642C0.417608 29.0922 0.18407 29.3671 0.152422 29.6635C0.147461 29.7099 0.147461 29.7569 0.147461 29.8113C0.147461 30.5284 1.10772 32.1086 2.05583 32.9473C4.0979 34.7463 7.24609 35.1231 10.686 33.9805C11.3545 33.7496 12.3027 33.3727 12.7767 33.1296C13.2508 32.8987 13.6397 32.7164 13.6397 32.7285C13.6397 32.7528 13.2508 33.9197 12.7767 35.3176C10.6374 41.6747 9.11799 47.8739 8.60747 52.2741C8.36437 54.3769 8.35222 57.8047 8.59532 59.2998C9.16661 62.7883 10.7833 65.4138 12.959 66.3862C15.9371 67.699 19.535 65.0613 22.4522 59.4213L23.218 57.9505L24.6523 57.3671C26.3784 56.6742 26.4391 56.6621 26.269 57.0997C26.196 57.282 25.6855 59.1174 25.1264 61.1838C24.0081 65.268 23.1451 68.9753 22.7561 71.3942C22.5009 72.9622 22.2699 75.3811 22.355 75.4905C22.513 75.6728 26.3905 73.1932 26.4513 72.8771C26.4756 72.7434 26.6458 71.6981 26.8281 70.5676C27.3265 67.3465 29.9155 55.8842 30.2073 55.6046C30.3774 55.4344 31.8725 54.9725 34.1091 54.3891C34.9599 54.1703 35.7014 53.9636 35.7379 53.9272C35.8108 53.8542 36.7346 51.1679 36.7346 51.0221C36.7346 50.8519 36.0539 50.937 34.1942 51.3746C27.0104 53.0398 19.8996 55.6532 18.2587 57.2334C17.7239 57.7439 17.6509 57.8776 17.6509 58.303C17.6509 59.5307 18.4896 61.4877 19.1946 61.9131C19.4134 62.0347 19.5958 62.1927 19.5958 62.2535C19.5958 62.4237 19.1096 62.6181 18.8665 62.5452C18.3073 62.3629 17.1283 60.6855 16.7515 59.5186C16.6785 59.3241 16.5934 59.3727 16.0586 59.8711C15.4873 60.4059 15.4022 60.4424 14.9525 60.3816C13.8828 60.2357 13.4088 59.2998 13.3115 57.1726C13.2021 54.778 13.5789 52.6023 15.2321 46.0749C17.6631 36.5209 18.8908 32.7528 21.103 28.0002C22.3793 25.2652 23.9352 22.6762 24.0567 23.0651C24.1297 23.2839 23.0478 26.1647 21.6986 29.2886C21.0058 30.9174 20.4709 32.2909 20.5317 32.3396C21.9296 33.5672 23.5948 34.7706 23.8987 34.7706C24.154 34.7706 25.9772 32.923 26.9253 31.7075C28.0315 30.2853 28.7608 29.1184 29.4415 27.6841C30.5598 25.326 31.046 23.4906 31.0703 21.4607C31.0824 20.2208 31.0581 20.075 30.7299 19.4186C30.4747 18.8716 30.2073 18.5799 29.6724 18.1788C28.8337 17.571 27.4237 16.9511 26.2933 16.708C25.2722 16.5013 25.1385 16.5013 24.3728 16.7688ZM66.2596 35.1353C67.1469 34.2601 67.9613 33.7739 68.958 33.5065C70.21 33.1661 71.0122 33.2877 71.6565 33.8954C72.483 34.6734 72.7747 36.0834 72.4222 37.5906C71.9603 39.5476 69.9547 42.6472 66.6121 46.5125C65.9435 47.3026 65.433 47.7402 64.8739 48.0805L64.0838 48.5424L63.2329 51.1315L63.0957 51.5575L63.0954 51.5583L63.0951 51.5594C62.6962 52.7977 62.3821 53.7729 62.3821 53.8056C62.3821 53.8543 62.9655 53.283 63.6948 52.5537C66.1745 50.0254 69.4321 47.6065 72.325 46.1479C73.9781 45.3092 74.0146 45.6981 72.3858 47.0109C69.1403 49.6364 65.98 52.3105 64.8617 53.4045L63.5976 54.6079L65.275 55.4344C67.0496 56.2974 71.3283 58.5948 71.8996 58.9959C72.2034 59.2025 72.2278 59.2512 72.0697 59.4335C71.9725 59.5429 71.7172 59.944 71.4984 60.3208C71.2675 60.7463 71.0244 61.0258 70.915 61.0258C70.21 61.0258 65.9435 59.7131 64.3998 59.0324C63.6583 58.7042 62.2362 57.8047 61.7986 57.3914L61.5312 57.124L61.3975 57.4643C61.2273 57.9141 60.1455 61.6944 59.8538 62.8491L59.635 63.7607L58.8449 63.8458C58.4195 63.8823 57.6658 64.0038 57.1675 64.1132C56.6691 64.2226 56.2437 64.2956 56.2315 64.2713C56.1829 64.2348 56.8514 61.1109 57.0216 60.5518C57.0945 60.3208 57.131 60.1142 57.1067 60.0899C57.0824 60.0656 56.8271 60.2479 56.5354 60.491C54.9188 61.8524 53.2049 62.5452 51.7341 62.448C50.6158 62.3629 49.7528 61.9861 49.1329 61.3175L48.6467 60.7827L48.2091 61.67C47.4676 63.1408 46.714 64.1862 46.1063 64.563C45.4985 64.9519 45.146 65.0006 44.6476 64.7332C44.125 64.4657 44.0034 64.0038 44.052 62.6182C44.0642 61.9375 44.0763 61.3905 44.0763 61.3905C44.0642 61.3905 43.7968 61.8038 43.4807 62.3143C42.8365 63.3475 41.7182 64.5994 41.2199 64.8669C40.7215 65.11 40.211 65.0735 39.5424 64.7332C38.412 64.1619 38.1081 63.5298 38.2297 61.9375C38.3391 60.4059 39.2386 58.6434 41.0618 56.3582C42.8244 54.1581 44.21 53.052 44.988 53.1979C45.2797 53.2587 45.3648 53.2343 45.3648 53.1006C45.3648 52.9791 45.8996 52.6995 46.8963 52.2862C47.7351 51.9459 48.4887 51.6663 48.5738 51.6663C49.0478 51.6663 49.0113 51.9824 48.2334 54.3526C46.9085 58.3517 46.3129 61.3905 46.8234 61.3905C47.2124 61.3905 48.4401 59.1418 48.6345 58.0843C49.0357 55.7748 51.4545 52.1404 53.5938 50.6088C54.6757 49.8309 55.8182 49.4662 57.362 49.3811C58.0548 49.3447 58.6139 49.3447 58.6139 49.3811C58.6139 49.4176 58.4802 49.758 58.3101 50.1348C58.1399 50.5237 57.9333 51.2044 57.8603 51.6663C57.7145 52.4929 57.7266 52.5172 58.0913 53.2465L58.4802 53.9758L57.7266 54.6079C56.2194 55.8599 55.4779 56.1759 55.0403 55.7262C54.7486 55.4466 54.6878 55.0333 54.7486 54.0123C54.8215 52.8697 54.7607 52.9305 53.7519 55.009C52.9132 56.7472 52.4148 58.2544 52.4148 59.0931C52.4148 59.6037 52.4756 59.7617 52.7673 60.0656C53.0712 60.3694 53.217 60.4181 53.7883 60.4181C54.7486 60.4181 55.7818 59.8589 56.8514 58.7771L57.7023 57.9141L58.1156 56.3339C59.7444 50.0983 62.7102 41.6018 64.6551 37.5663C65.3358 36.1441 65.5546 35.8281 66.2596 35.1353ZM67.6574 42.5621C68.8729 40.1554 69.3834 38.5144 69.0796 37.9431C68.8851 37.6028 68.3989 37.6149 68.1679 37.9553C67.8397 38.4779 65.98 43.1577 64.9225 46.1357L64.4484 47.4728L64.8252 47.0473C65.5059 46.2694 66.8795 44.1058 67.6574 42.5621ZM43.4807 59.9926C44.0763 59.0931 44.1493 58.923 44.3924 57.5859C44.5382 56.7958 44.6355 56.1273 44.599 56.0908C44.5139 55.9936 43.3956 57.7925 42.7879 59.0202C42.1923 60.1993 41.6453 61.7187 41.7668 61.8402C41.9006 61.9739 42.8122 60.9894 43.4807 59.9926ZM88.7223 42.8052C87.5919 43.0726 85.6835 44.434 84.7476 45.6495C84.468 46.0142 84.2128 46.3059 84.1884 46.2816C84.1641 46.2694 84.2857 45.7589 84.4437 45.1633C84.6139 44.5555 84.7476 43.9842 84.7476 43.8748C84.7476 43.7654 84.5653 43.5953 84.3586 43.5102C83.7387 43.2549 82.9486 43.3157 82.2193 43.6925C81.5143 44.045 79.6424 45.7589 79.6424 46.0385C79.6424 46.2208 80.3474 48.275 80.4325 48.3723C80.469 48.3966 80.7121 48.2142 80.9916 47.9711C81.259 47.7159 81.5022 47.5336 81.5265 47.5579C81.6359 47.6673 80.7364 50.3779 80.4568 50.779C79.6667 51.958 78.1473 53.4653 77.0047 54.1946C76.324 54.6322 75.1936 55.0698 74.7439 55.0698C73.5648 55.0698 73.0786 54.1946 73.4554 52.7238C73.577 52.2133 73.5891 52.2012 74.3306 52.0674C75.3152 51.873 77.5396 50.7668 78.512 49.9646C79.9098 48.8342 80.2015 47.8374 79.5573 46.5611C79.059 45.6009 78.4634 45.3092 77.1506 45.3821C74.1361 45.5401 70.4045 48.6154 69.2862 51.873C68.5812 53.8907 68.7149 55.4709 69.663 56.5527C71.5592 58.692 75.3516 57.7925 79.1319 54.2918C79.5452 53.9029 79.8855 53.6233 79.8855 53.6719C79.8855 53.7084 79.7518 54.2797 79.5938 54.9239C79.217 56.419 78.8888 58.1329 78.9739 58.2058C79.0954 58.3395 80.1286 57.9384 81.8425 57.1118L83.6172 56.261L83.7022 55.0212C83.8967 52.1404 84.8691 49.2353 86.4007 46.9015C87.0085 46.002 88.2604 44.6892 89.2207 43.9478C89.5732 43.6925 89.8528 43.3765 89.8528 43.2671C89.8528 43.0726 89.4152 42.6472 89.245 42.6836C89.2258 42.69 89.1525 42.7066 89.0501 42.7297L89.0496 42.7298C88.9578 42.7505 88.8428 42.7765 88.7223 42.8052ZM77.3937 47.5336C77.5274 47.7524 77.0047 48.7126 76.4699 49.2353C75.9472 49.7458 74.3306 50.7668 74.2212 50.6574C74.1239 50.5602 74.598 49.7093 75.1936 48.9071C75.9958 47.8496 77.1384 47.1324 77.3937 47.5336ZM37.6219 56.808C37.9015 56.6256 38.3755 56.3825 38.6794 56.2731C39.433 55.9692 39.8463 55.9814 40.0773 56.3096C40.2596 56.577 40.2231 56.6135 38.9833 57.7804C37.4396 59.2268 36.8318 60.0655 35.9567 61.8888C34.9356 64.0281 34.3036 66.6172 34.3036 68.7444V69.5952L32.2736 70.1422C31.7856 70.2734 31.3269 70.3955 30.9575 70.4939C30.4712 70.6235 30.1393 70.7118 30.0979 70.7256C29.9398 70.7621 30.0857 69.8748 30.6084 67.5045C30.8879 66.2282 32.1035 61.6336 32.3101 61.0866C32.3709 60.9286 32.225 61.0015 31.8847 61.3297C31.5929 61.6093 31.3498 61.7551 31.2891 61.6943C31.2283 61.6214 31.0095 61.0866 30.7907 60.4788L30.4017 59.397L31.362 58.4611C32.6018 57.2699 33.4284 56.8444 34.3765 56.9174C35.3854 57.0024 35.434 57.1118 35.0936 58.4124C34.9356 59.008 34.8262 59.5186 34.8384 59.5429C34.8627 59.555 35.0329 59.3484 35.2152 59.081C35.6406 58.4732 36.9412 57.2334 37.6219 56.808Z" fill="white"/>
</svg>
